<svg width="228" height="45" viewBox="0 0 228 45" fill="none" xmlns="http://www.w3.org/2000/svg">
<path d="M16.2099 15.3846C17.0675 15.3846 18.1426 14.8048 18.7827 14.0318C19.3625 13.3312 19.7853 12.3528 19.7853 11.3744C19.7853 11.2416 19.7732 11.1087 19.749 11C18.7948 11.0362 17.6473 11.6402 16.9588 12.4495C16.4153 13.0655 15.9201 14.0318 15.9201 15.0223C15.9201 15.1672 15.9442 15.3121 15.9563 15.3605C16.0167 15.3725 16.1133 15.3846 16.2099 15.3846ZM13.1902 30C14.3619 30 14.8813 29.2149 16.3428 29.2149C17.8285 29.2149 18.1546 29.9758 19.4592 29.9758C20.7395 29.9758 21.5971 28.7921 22.4064 27.6325C23.3123 26.3039 23.6867 24.9994 23.7109 24.939C23.6264 24.9148 21.1743 23.9123 21.1743 21.0979C21.1743 18.658 23.107 17.5588 23.2157 17.4743C21.9353 15.6383 19.9906 15.59 19.4592 15.59C18.0218 15.59 16.8501 16.4596 16.1133 16.4596C15.3161 16.4596 14.2653 15.6383 13.0211 15.6383C10.6537 15.6383 8.25 17.595 8.25 21.2912C8.25 23.5861 9.14383 26.014 10.243 27.5842C11.1852 28.9129 12.0065 30 13.1902 30Z" fill="white"/>
<path d="M52.5606 21.3555H50.5386C50.5017 21.0939 50.4263 20.8615 50.3124 20.6584C50.1985 20.4522 50.0523 20.2768 49.8738 20.1321C49.6953 19.9875 49.4891 19.8767 49.2552 19.7997C49.0244 19.7228 48.7736 19.6843 48.5027 19.6843C48.0134 19.6843 47.5871 19.8059 47.224 20.049C46.8608 20.2891 46.5792 20.6399 46.3791 21.1016C46.1791 21.5601 46.0791 22.1172 46.0791 22.7727C46.0791 23.4467 46.1791 24.013 46.3791 24.4716C46.5823 24.9302 46.8654 25.2764 47.2286 25.5103C47.5917 25.7442 48.0118 25.8612 48.4889 25.8612C48.7566 25.8612 49.0044 25.8258 49.2321 25.755C49.463 25.6842 49.6676 25.5811 49.8461 25.4457C50.0246 25.3072 50.1724 25.1394 50.2893 24.9425C50.4093 24.7455 50.4924 24.5208 50.5386 24.2685L52.5606 24.2777C52.5083 24.7116 52.3775 25.1302 52.1682 25.5334C51.962 25.9335 51.6835 26.292 51.3326 26.609C50.9849 26.9229 50.5694 27.1722 50.0862 27.3569C49.6061 27.5385 49.0629 27.6293 48.4566 27.6293C47.6133 27.6293 46.8593 27.4384 46.1945 27.0568C45.5328 26.6752 45.0096 26.1228 44.6249 25.3995C44.2433 24.6763 44.0524 23.8007 44.0524 22.7727C44.0524 21.7417 44.2463 20.8646 44.6341 20.1413C45.0219 19.4181 45.5482 18.8672 46.213 18.4886C46.8777 18.107 47.6256 17.9162 48.4566 17.9162C49.0044 17.9162 49.5122 17.9931 49.98 18.147C50.4509 18.3009 50.8679 18.5256 51.2311 18.821C51.5942 19.1134 51.8897 19.4719 52.1174 19.8967C52.3483 20.3214 52.496 20.8076 52.5606 21.3555ZM64.1802 22.7727C64.1802 23.8037 63.9848 24.6809 63.5939 25.4041C63.2062 26.1274 62.6768 26.6798 62.0059 27.0614C61.338 27.44 60.5871 27.6293 59.753 27.6293C58.9128 27.6293 58.1588 27.4384 57.491 27.0568C56.8231 26.6752 56.2953 26.1228 55.9075 25.3995C55.5197 24.6763 55.3258 23.8007 55.3258 22.7727C55.3258 21.7417 55.5197 20.8646 55.9075 20.1413C56.2953 19.4181 56.8231 18.8672 57.491 18.4886C58.1588 18.107 58.9128 17.9162 59.753 17.9162C60.5871 17.9162 61.338 18.107 62.0059 18.4886C62.6768 18.8672 63.2062 19.4181 63.5939 20.1413C63.9848 20.8646 64.1802 21.7417 64.1802 22.7727ZM62.1536 22.7727C62.1536 22.1049 62.0536 21.5417 61.8535 21.0831C61.6566 20.6245 61.378 20.2768 61.018 20.0398C60.6579 19.8028 60.2362 19.6843 59.753 19.6843C59.2698 19.6843 58.8482 19.8028 58.4881 20.0398C58.128 20.2768 57.848 20.6245 57.6479 21.0831C57.451 21.5417 57.3525 22.1049 57.3525 22.7727C57.3525 23.4406 57.451 24.0038 57.6479 24.4624C57.848 24.9209 58.128 25.2687 58.4881 25.5057C58.8482 25.7427 59.2698 25.8612 59.753 25.8612C60.2362 25.8612 60.6579 25.7427 61.018 25.5057C61.378 25.2687 61.6566 24.9209 61.8535 24.4624C62.0536 24.0038 62.1536 23.4406 62.1536 22.7727ZM75.067 18.0455V27.5H73.3404L69.2272 21.5494H69.1579V27.5H67.159V18.0455H68.9132L72.9942 23.9915H73.0773V18.0455H75.067ZM77.8565 19.6935V18.0455H85.6214V19.6935H82.7268V27.5H80.751V19.6935H77.8565ZM90.3971 18.0455V27.5H88.3981V18.0455H90.3971ZM101.448 18.0455V27.5H99.7212L95.6079 21.5494H95.5386V27.5H93.5397V18.0455H95.294L99.3749 23.9915H99.458V18.0455H101.448ZM110.437 18.0455H112.436V24.1854C112.436 24.8748 112.271 25.478 111.942 25.995C111.616 26.5121 111.159 26.9152 110.571 27.2045C109.983 27.4908 109.298 27.6339 108.517 27.6339C107.732 27.6339 107.046 27.4908 106.458 27.2045C105.87 26.9152 105.413 26.5121 105.087 25.995C104.76 25.478 104.597 24.8748 104.597 24.1854V18.0455H106.596V24.0146C106.596 24.3746 106.675 24.6947 106.832 24.9748C106.992 25.2549 107.216 25.4749 107.506 25.6349C107.795 25.795 108.132 25.875 108.517 25.875C108.904 25.875 109.241 25.795 109.528 25.6349C109.817 25.4749 110.04 25.2549 110.197 24.9748C110.357 24.6947 110.437 24.3746 110.437 24.0146V18.0455ZM115.579 27.5V18.0455H121.949V19.6935H117.578V21.9464H121.622V23.5945H117.578V25.8519H121.968V27.5H115.579ZM131.672 27.5L128.966 18.0455H131.15L132.715 24.6147H132.793L134.52 18.0455H136.39L138.112 24.6286H138.195L139.76 18.0455H141.943L139.238 27.5H137.29L135.489 21.3185H135.416L133.62 27.5H131.672ZM146.51 18.0455V27.5H144.511V18.0455H146.51ZM149.293 19.6935V18.0455H157.058V19.6935H154.163V27.5H152.187V19.6935H149.293ZM159.834 27.5V18.0455H161.833V21.9464H165.891V18.0455H167.885V27.5H165.891V23.5945H161.833V27.5H159.834ZM177.168 27.5H175.026L178.29 18.0455H180.866L184.125 27.5H181.983L179.615 20.206H179.541L177.168 27.5ZM177.034 23.7837H182.094V25.3441H177.034V23.7837ZM186.761 27.5V18.0455H190.491C191.208 18.0455 191.819 18.1824 192.324 18.4563C192.829 18.7272 193.213 19.1042 193.478 19.5874C193.746 20.0675 193.88 20.6214 193.88 21.2493C193.88 21.8771 193.744 22.4311 193.473 22.9112C193.202 23.3913 192.81 23.7653 192.296 24.033C191.785 24.3008 191.167 24.4347 190.44 24.4347H188.063V22.8327H190.117C190.502 22.8327 190.819 22.7666 191.068 22.6342C191.32 22.4988 191.508 22.3126 191.631 22.0756C191.757 21.8356 191.821 21.5601 191.821 21.2493C191.821 20.9354 191.757 20.6615 191.631 20.4276C191.508 20.1906 191.32 20.0075 191.068 19.8782C190.816 19.7459 190.496 19.6797 190.108 19.6797H188.76V27.5H186.761ZM196.676 27.5V18.0455H200.406C201.123 18.0455 201.734 18.1824 202.239 18.4563C202.743 18.7272 203.128 19.1042 203.393 19.5874C203.661 20.0675 203.794 20.6214 203.794 21.2493C203.794 21.8771 203.659 22.4311 203.388 22.9112C203.117 23.3913 202.725 23.7653 202.211 24.033C201.7 24.3008 201.082 24.4347 200.355 24.4347H197.978V22.8327H200.032C200.417 22.8327 200.734 22.7666 200.983 22.6342C201.235 22.4988 201.423 22.3126 201.546 22.0756C201.672 21.8356 201.736 21.5601 201.736 21.2493C201.736 20.9354 201.672 20.6615 201.546 20.4276C201.423 20.1906 201.235 20.0075 200.983 19.8782C200.731 19.7459 200.411 19.6797 200.023 19.6797H198.675V27.5H196.676ZM206.591 27.5V18.0455H208.59V25.8519H212.643V27.5H206.591ZM215.465 27.5V18.0455H221.836V19.6935H217.464V21.9464H221.508V23.5945H217.464V25.8519H221.854V27.5H215.465Z" fill="white" fill-opacity="0.9"/>
</svg>
