 <svg width="264" height="25" viewBox="0 0 264 25" fill="none" xmlns="http://www.w3.org/2000/svg">
<g clip-path="url(#clip0_0_887)">
<path d="M22.6406 12.5C22.6406 6.977 18.1636 2.5 12.6406 2.5C7.11763 2.5 2.64062 6.977 2.64062 12.5C2.64062 17.491 6.29762 21.628 11.0786 22.378V15.391H8.53862V12.5H11.0786V10.297C11.0786 7.791 12.5706 6.407 14.8556 6.407C15.9486 6.407 17.0936 6.602 17.0936 6.602V9.062H15.8336C14.5906 9.062 14.2036 9.833 14.2036 10.625V12.5H16.9766L16.5336 15.39H14.2036V22.378C18.9836 21.628 22.6406 17.491 22.6406 12.5Z" fill="white" fill-opacity="0.9"/>
</g>
<path d="M44.9511 10.8828H42.7736C42.7338 10.6011 42.6526 10.3509 42.53 10.1321C42.4073 9.91004 42.2499 9.72112 42.0577 9.56534C41.8654 9.40956 41.6434 9.29025 41.3915 9.20739C41.1429 9.12453 40.8728 9.0831 40.5811 9.0831C40.0541 9.0831 39.5951 9.21402 39.204 9.47585C38.8129 9.73437 38.5096 10.1122 38.2942 10.6094C38.0787 11.1032 37.971 11.7031 37.971 12.4091C37.971 13.1349 38.0787 13.7448 38.2942 14.2386C38.5129 14.7325 38.8178 15.1054 39.2089 15.3572C39.6 15.6091 40.0525 15.7351 40.5662 15.7351C40.8545 15.7351 41.1213 15.697 41.3666 15.6207C41.6152 15.5445 41.8356 15.4335 42.0278 15.2876C42.2201 15.1385 42.3792 14.9579 42.5051 14.7457C42.6344 14.5336 42.7239 14.2917 42.7736 14.0199L44.9511 14.0298C44.8948 14.4972 44.7539 14.9479 44.5285 15.3821C44.3065 15.813 44.0065 16.1991 43.6287 16.5405C43.2542 16.8786 42.8067 17.147 42.2864 17.3459C41.7693 17.5414 41.1843 17.6392 40.5314 17.6392C39.6232 17.6392 38.8112 17.4337 38.0953 17.0227C37.3827 16.6117 36.8193 16.0168 36.405 15.2379C35.994 14.459 35.7885 13.5161 35.7885 12.4091C35.7885 11.2988 35.9973 10.3542 36.4149 9.57528C36.8325 8.7964 37.3993 8.20312 38.1152 7.79545C38.8311 7.38447 39.6365 7.17898 40.5314 7.17898C41.1213 7.17898 41.6682 7.26184 42.172 7.42756C42.6791 7.59328 43.1282 7.83523 43.5193 8.15341C43.9104 8.46828 44.2286 8.8544 44.4739 9.31179C44.7224 9.76918 44.8815 10.2929 44.9511 10.8828ZM57.3493 12.4091C57.3493 13.5194 57.1389 14.464 56.7179 15.2429C56.3003 16.0218 55.7303 16.6167 55.0077 17.0277C54.2885 17.4354 53.4798 17.6392 52.5816 17.6392C51.6768 17.6392 50.8647 17.4337 50.1455 17.0227C49.4263 16.6117 48.8579 16.0168 48.4402 15.2379C48.0226 14.459 47.8138 13.5161 47.8138 12.4091C47.8138 11.2988 48.0226 10.3542 48.4402 9.57528C48.8579 8.7964 49.4263 8.20312 50.1455 7.79545C50.8647 7.38447 51.6768 7.17898 52.5816 7.17898C53.4798 7.17898 54.2885 7.38447 55.0077 7.79545C55.7303 8.20312 56.3003 8.7964 56.7179 9.57528C57.1389 10.3542 57.3493 11.2988 57.3493 12.4091ZM55.1668 12.4091C55.1668 11.6899 55.0591 11.0833 54.8437 10.5895C54.6315 10.0956 54.3316 9.72112 53.9438 9.46591C53.556 9.2107 53.1019 9.0831 52.5816 9.0831C52.0612 9.0831 51.6072 9.2107 51.2194 9.46591C50.8316 9.72112 50.53 10.0956 50.3145 10.5895C50.1024 11.0833 49.9964 11.6899 49.9964 12.4091C49.9964 13.1283 50.1024 13.7348 50.3145 14.2287C50.53 14.7225 50.8316 15.0971 51.2194 15.3523C51.6072 15.6075 52.0612 15.7351 52.5816 15.7351C53.1019 15.7351 53.556 15.6075 53.9438 15.3523C54.3316 15.0971 54.6315 14.7225 54.8437 14.2287C55.0591 13.7348 55.1668 13.1283 55.1668 12.4091ZM68.9583 7.31818V17.5H67.0989L62.6693 11.0916H62.5947V17.5H60.442V7.31818H62.3312L66.7261 13.7216H66.8156V7.31818H68.9583ZM71.8471 9.09304V7.31818H80.2093V9.09304H77.0921V17.5H74.9643V9.09304H71.8471ZM85.2372 7.31818V17.5H83.0845V7.31818H85.2372ZM97.0226 7.31818V17.5H95.1633L90.7336 11.0916H90.659V17.5H88.5063V7.31818H90.3955L94.7904 13.7216H94.8799V7.31818H97.0226ZM106.588 7.31818H108.741V13.9304C108.741 14.6728 108.564 15.3224 108.209 15.8793C107.858 16.4361 107.365 16.8703 106.732 17.1818C106.099 17.4901 105.362 17.6442 104.52 17.6442C103.675 17.6442 102.936 17.4901 102.303 17.1818C101.67 16.8703 101.178 16.4361 100.826 15.8793C100.475 15.3224 100.299 14.6728 100.299 13.9304V7.31818H102.452V13.7464C102.452 14.1342 102.536 14.4789 102.705 14.7805C102.878 15.0821 103.12 15.3191 103.431 15.4915C103.743 15.6638 104.106 15.75 104.52 15.75C104.938 15.75 105.301 15.6638 105.609 15.4915C105.92 15.3191 106.161 15.0821 106.33 14.7805C106.502 14.4789 106.588 14.1342 106.588 13.7464V7.31818ZM112.01 17.5V7.31818H118.871V9.09304H114.163V11.5192H118.518V13.294H114.163V15.7251H118.891V17.5H112.01ZM129.111 17.5L126.197 7.31818H128.549L130.234 14.3928H130.319L132.178 7.31818H134.191L136.046 14.4077H136.135L137.821 7.31818H140.172L137.259 17.5H135.161L133.222 10.843H133.142L131.209 17.5H129.111ZM144.975 7.31818V17.5H142.822V7.31818H144.975ZM147.857 9.09304V7.31818H156.219V9.09304H153.102V17.5H150.974V9.09304H147.857ZM159.094 17.5V7.31818H161.247V11.5192H165.617V7.31818H167.764V17.5H165.617V13.294H161.247V17.5H159.094ZM175.775 17.5V7.31818H182.517V9.09304H177.928V11.5192H182.069V13.294H177.928V17.5H175.775ZM185.946 17.5H183.64L187.154 7.31818H189.929L193.439 17.5H191.132L188.581 9.64489H188.502L185.946 17.5ZM185.802 13.4979H191.251V15.1783H185.802V13.4979ZM204.667 10.8828H202.49C202.45 10.6011 202.369 10.3509 202.246 10.1321C202.123 9.91004 201.966 9.72112 201.774 9.56534C201.581 9.40956 201.359 9.29025 201.108 9.20739C200.859 9.12453 200.589 9.0831 200.297 9.0831C199.77 9.0831 199.311 9.21402 198.92 9.47585C198.529 9.73437 198.226 10.1122 198.01 10.6094C197.795 11.1032 197.687 11.7031 197.687 12.4091C197.687 13.1349 197.795 13.7448 198.01 14.2386C198.229 14.7325 198.534 15.1054 198.925 15.3572C199.316 15.6091 199.769 15.7351 200.282 15.7351C200.571 15.7351 200.837 15.697 201.083 15.6207C201.331 15.5445 201.552 15.4335 201.744 15.2876C201.936 15.1385 202.095 14.9579 202.221 14.7457C202.35 14.5336 202.44 14.2917 202.49 14.0199L204.667 14.0298C204.611 14.4972 204.47 14.9479 204.245 15.3821C204.023 15.813 203.723 16.1991 203.345 16.5405C202.97 16.8786 202.523 17.147 202.002 17.3459C201.485 17.5414 200.9 17.6392 200.247 17.6392C199.339 17.6392 198.527 17.4337 197.811 17.0227C197.099 16.6117 196.535 16.0168 196.121 15.2379C195.71 14.459 195.505 13.5161 195.505 12.4091C195.505 11.2988 195.713 10.3542 196.131 9.57528C196.549 8.7964 197.115 8.20312 197.831 7.79545C198.547 7.38447 199.353 7.17898 200.247 7.17898C200.837 7.17898 201.384 7.26184 201.888 7.42756C202.395 7.59328 202.844 7.83523 203.235 8.15341C203.626 8.46828 203.945 8.8544 204.19 9.31179C204.438 9.76918 204.598 10.2929 204.667 10.8828ZM207.709 17.5V7.31818H214.57V9.09304H209.862V11.5192H214.217V13.294H209.862V15.7251H214.59V17.5H207.709ZM217.779 17.5V7.31818H221.856C222.605 7.31818 223.23 7.42921 223.73 7.65128C224.231 7.87334 224.607 8.18158 224.859 8.57599C225.111 8.96709 225.237 9.41785 225.237 9.92827C225.237 10.326 225.157 10.6757 224.998 10.9773C224.839 11.2756 224.62 11.5208 224.342 11.7131C224.067 11.902 223.752 12.0362 223.397 12.1158V12.2152C223.785 12.2318 224.148 12.3411 224.486 12.5433C224.827 12.7455 225.104 13.0289 225.316 13.3935C225.528 13.7547 225.634 14.1856 225.634 14.6861C225.634 15.2263 225.5 15.7086 225.232 16.1328C224.966 16.5537 224.574 16.8868 224.053 17.1321C223.533 17.3774 222.892 17.5 222.129 17.5H217.779ZM219.932 15.7401H221.687C222.287 15.7401 222.724 15.6257 222.999 15.397C223.274 15.165 223.412 14.8568 223.412 14.4723C223.412 14.1906 223.344 13.942 223.208 13.7266C223.072 13.5111 222.878 13.3421 222.626 13.2195C222.378 13.0968 222.081 13.0355 221.737 13.0355H219.932V15.7401ZM219.932 11.5788H221.528C221.823 11.5788 222.085 11.5275 222.313 11.4247C222.545 11.3187 222.728 11.1695 222.86 10.9773C222.996 10.785 223.064 10.5547 223.064 10.2862C223.064 9.91832 222.933 9.62169 222.671 9.39631C222.413 9.17093 222.045 9.05824 221.567 9.05824H219.932V11.5788ZM237.89 12.4091C237.89 13.5194 237.679 14.464 237.258 15.2429C236.841 16.0218 236.27 16.6167 235.548 17.0277C234.829 17.4354 234.02 17.6392 233.122 17.6392C232.217 17.6392 231.405 17.4337 230.686 17.0227C229.966 16.6117 229.398 16.0168 228.98 15.2379C228.563 14.459 228.354 13.5161 228.354 12.4091C228.354 11.2988 228.563 10.3542 228.98 9.57528C229.398 8.7964 229.966 8.20312 230.686 7.79545C231.405 7.38447 232.217 7.17898 233.122 7.17898C234.02 7.17898 234.829 7.38447 235.548 7.79545C236.27 8.20312 236.841 8.7964 237.258 9.57528C237.679 10.3542 237.89 11.2988 237.89 12.4091ZM235.707 12.4091C235.707 11.6899 235.599 11.0833 235.384 10.5895C235.172 10.0956 234.872 9.72112 234.484 9.46591C234.096 9.2107 233.642 9.0831 233.122 9.0831C232.601 9.0831 232.147 9.2107 231.76 9.46591C231.372 9.72112 231.07 10.0956 230.855 10.5895C230.643 11.0833 230.537 11.6899 230.537 12.4091C230.537 13.1283 230.643 13.7348 230.855 14.2287C231.07 14.7225 231.372 15.0971 231.76 15.3523C232.147 15.6075 232.601 15.7351 233.122 15.7351C233.642 15.7351 234.096 15.6075 234.484 15.3523C234.872 15.0971 235.172 14.7225 235.384 14.2287C235.599 13.7348 235.707 13.1283 235.707 12.4091ZM250.339 12.4091C250.339 13.5194 250.128 14.464 249.707 15.2429C249.29 16.0218 248.72 16.6167 247.997 17.0277C247.278 17.4354 246.469 17.6392 245.571 17.6392C244.666 17.6392 243.854 17.4337 243.135 17.0227C242.416 16.6117 241.847 16.0168 241.43 15.2379C241.012 14.459 240.803 13.5161 240.803 12.4091C240.803 11.2988 241.012 10.3542 241.43 9.57528C241.847 8.7964 242.416 8.20312 243.135 7.79545C243.854 7.38447 244.666 7.17898 245.571 7.17898C246.469 7.17898 247.278 7.38447 247.997 7.79545C248.72 8.20312 249.29 8.7964 249.707 9.57528C250.128 10.3542 250.339 11.2988 250.339 12.4091ZM248.156 12.4091C248.156 11.6899 248.048 11.0833 247.833 10.5895C247.621 10.0956 247.321 9.72112 246.933 9.46591C246.545 9.2107 246.091 9.0831 245.571 9.0831C245.051 9.0831 244.597 9.2107 244.209 9.46591C243.821 9.72112 243.519 10.0956 243.304 10.5895C243.092 11.0833 242.986 11.6899 242.986 12.4091C242.986 13.1283 243.092 13.7348 243.304 14.2287C243.519 14.7225 243.821 15.0971 244.209 15.3523C244.597 15.6075 245.051 15.7351 245.571 15.7351C246.091 15.7351 246.545 15.6075 246.933 15.3523C247.321 15.0971 247.621 14.7225 247.833 14.2287C248.048 13.7348 248.156 13.1283 248.156 12.4091ZM253.431 17.5V7.31818H255.584V11.8075H255.718L259.382 7.31818H261.963L258.184 11.8771L262.007 17.5H259.432L256.643 13.3139L255.584 14.6065V17.5H253.431Z" fill="white" fill-opacity="0.9"/>
<defs>
<clipPath id="clip0_0_887">
<rect width="24" height="24" fill="white" transform="translate(0.640625 0.5)"/>
</clipPath>
</defs>
</svg> 


